<svg xmlns="http://www.w3.org/2000/svg" height="24px" viewBox="0 0 24 24" width="24px" fill="#000000"><path d="M0 0h24v24H0z" fill="none"/><path d="M20 2H4c-1.1 0-1.99.9-1.99 2L2 20c0 1.1.9 2 2 2h16c1.1 0 2-.9 2-2V4c0-1.1-.9-2-2-2zm-8 6c2.21 0 4 1.79 4 4s-1.79 4-4 4-4-1.79-4-4 1.79-4 4-4zM4.5 20c-.28 0-.5-.22-.5-.5V11h2.09c-.05.33-.09.66-.09 1 0 3.31 2.69 6 6 6s6-2.69 6-6c0-.34-.04-.67-.09-1H20v8.5c0 .28-.22.5-.5.5h-15zM20 6.5c0 .28-.22.5-.5.5h-2c-.28 0-.5-.22-.5-.5v-2c0-.28.22-.5.5-.5h2c.28 0 .5.22.5.5v2z"/></svg>