<?xml version="1.0" encoding="utf-8"?>
<!-- Generator: Adobe Illustrator 24.0.1, SVG Export Plug-In . SVG Version: 6.00 Build 0)  -->
<svg version="1.1" id="Layer_1" xmlns="http://www.w3.org/2000/svg" xmlns:xlink="http://www.w3.org/1999/xlink" x="0px" y="0px"
	 width="1200px" height="1200px" viewBox="0 0 1200 1200" style="enable-background:new 0 0 1200 1200;" xml:space="preserve">
<g id="illustration_1_">
	<path style="fill:#F3AF9D;" d="M890.3,576.3c-41.1-52.9-75.8-84.2-111-123.8l57-41.7c40.2,42.3,69.2,93.8,100.3,140.2
		C981.2,617.4,937.6,659.6,890.3,576.3z"/>
	<g>
		<path style="fill:#60504B;" d="M573.7,318.9c-5.1-10.8-14-45.8-13.1-80.4c1.1-40.5,15.5-80.5,65.3-80.4
			c47.8,0,61.8,39.1,62.5,79.7c0.5,32.5-7.4,65.9-13.4,81.2C647.2,305.5,606.7,303.2,573.7,318.9z"/>
		<circle style="fill:#DF7977;" cx="686.2" cy="232.9" r="12.1"/>
		<circle style="fill:#DF7977;" cx="563.6" cy="232.9" r="12.1"/>
		<circle id="jawMid_2_" cx="625.5" cy="283.2" r="0.8"/>
		<circle id="rightJaw0_2_" cx="577.7" cy="206.6" r="0.8"/>
		<circle id="leftJaw0_2_" cx="673.3" cy="206.6" r="0.8"/>
		<circle id="rightJaw1_2_" cx="578.4" cy="219.1" r="0.8"/>
		<circle id="leftJaw1_2_" cx="672.6" cy="219.1" r="0.8"/>
		<circle id="rightJaw7_2_" cx="614.6" cy="281.2" r="0.8"/>
		<circle id="leftJaw7_2_" cx="636.4" cy="281.2" r="0.8"/>
		<path style="fill:#60504B;" d="M632.1,159.5c-3.7-3-10-7.5-7.2-10.7C627.7,145.7,631.6,152.3,632.1,159.5z"/>
		<path style="fill:#60504B;" d="M631.9,159.4c-0.7-6.4-2.5-16.3,2.3-19.1C639,137.5,637.1,149.1,631.9,159.4z"/>
	</g>
	<path style="fill:#60504B;" d="M647.9,923.2V970c0,48.8,55.4,50.3,55.4,4.5v-51.8L647.9,923.2z"/>
	<rect x="660.3" y="944.5" style="fill:#FFFFFF;" width="30.6" height="4.4"/>
	<rect x="660.3" y="952.9" style="fill:#FFFFFF;" width="30.6" height="4.4"/>
	<rect x="660.3" y="961.4" style="fill:#FFFFFF;" width="30.6" height="4.4"/>
	<path style="fill:#60504B;" d="M544.6,923.2V970c0,48.8,55.4,50.3,55.4,4.5v-51.8L544.6,923.2z"/>
	<path style="fill:#B1C9C3;" d="M518.9,549c0,66.4,0,148.9,0,228.2c0,55.8,0,110,0,155.8c56.6,0,58.8,0,99.7,0
		c0-46.8,0-101.4,0-154.5c0-75.9,0-148.8,0-191.6c5.9,0,6.5,0,11.9,0c0,41.3,0,115.8,0,191.6c0,54.9,0,110.4,0,154.5
		c45,0,42.6,0,99.7,0c0-43,0-97.5,0-154.5c0-79.5,0-164,0-229.5H518.9z"/>
	<path style="fill:#D74948;" d="M508.6,564.8h232.8c1.2-21.1,5.1-120.5-32.3-182c-8.5-14.1-19.2-26.2-32.6-34.9
		c-14.3-9.3-31.6-14.8-52.6-14.8c-21.1,0-38.3,6-52.5,16.2c-11.9,8.6-21.6,20.1-29.5,33.4C507.6,440.5,507.5,532.4,508.6,564.8z"/>
	<rect x="557" y="944.5" style="fill:#FFFFFF;" width="30.6" height="4.4"/>
	<rect x="557" y="952.9" style="fill:#FFFFFF;" width="30.6" height="4.4"/>
	<rect x="557" y="961.4" style="fill:#FFFFFF;" width="30.6" height="4.4"/>
	<path style="fill:#DD6F6F;" d="M574.8,350.3c-60.9-13.5-92.6,7.1-161.5,60.4l57,41.7c26.2-33.9,36-46.4,66.4-41.6L574.8,350.3z"/>
	<path style="fill:#F3AF9D;" d="M616.2,277h17.4c0,0,5.8,56,7.2,79.5c-4.7,22.2-30.6,12.4-32.6-1.4L616.2,277"/>
	<path style="fill:#DD9B8E;" d="M616.2,277h17.4c1.9,19-20.1,78.1-25.3,78.1L616.2,277z"/>
	<g>
		<ellipse style="fill:#F3AF9D;" cx="625.2" cy="227.4" rx="56.4" ry="57.6"/>
		<circle id="jawMid_1_" cx="625.5" cy="283.2" r="0.8"/>
		<circle id="rightJaw0_1_" cx="577.7" cy="206.6" r="0.8"/>
		<circle id="leftJaw0_1_" cx="673.3" cy="206.6" r="0.8"/>
		<circle id="rightJaw1_1_" cx="578.4" cy="219.1" r="0.8"/>
		<circle id="leftJaw1_1_" cx="672.6" cy="219.1" r="0.8"/>
		<circle id="rightJaw7_1_" cx="614.6" cy="281.2" r="0.8"/>
		<circle id="leftJaw7_1_" cx="636.4" cy="281.2" r="0.8"/>
	</g>
	<g>
		<path style="fill:#60504B;" d="M636.7,181.3c-0.4,18.9-40.4,33.3-76,30.4C565.8,189,587,158.4,624,158s57.1,21.6,65.1,56.3
			C667.2,209.2,649.5,211.3,636.7,181.3z"/>
		<circle id="jawMid_3_" cx="625.5" cy="283.2" r="0.8"/>
		<circle id="rightJaw0_3_" cx="577.7" cy="206.6" r="0.8"/>
		<circle id="leftJaw0_3_" cx="673.3" cy="206.6" r="0.8"/>
		<circle id="rightJaw1_3_" cx="578.4" cy="219.1" r="0.8"/>
		<circle id="leftJaw1_3_" cx="672.6" cy="219.1" r="0.8"/>
		<circle id="rightJaw7_3_" cx="614.6" cy="281.2" r="0.8"/>
		<circle id="leftJaw7_3_" cx="636.4" cy="281.2" r="0.8"/>
	</g>
	<path style="fill:#2C323A;stroke:#2C323A;stroke-width:2;stroke-miterlimit:10;" d="M625,230.1c-1.2,0-4.6,1.6-5.8,5.2
		c-0.2,1.2,0.6,5.8,6,4.1c-0.1-1-4.7-1.1-4.5-3.7C621,233.9,622.7,233.9,625,230.1z"/>
	<g>
		<path style="fill:#2C323A;stroke:#2C323A;stroke-width:2;stroke-miterlimit:10;" d="M599.9,217.9c-7.1-2.2-10.9-4.3-20.5,0
			C583.1,212.9,594.3,212,599.9,217.9z"/>
		<circle id="rightBrow1_1_" cx="593" cy="191.2" r="0.8"/>
		<circle id="rightBrow4_1_" cx="616.1" cy="194.3" r="0.8"/>
		<circle id="rightBrow3_1_" cx="608.3" cy="191.2" r="0.8"/>
		<circle id="rightBrow0_1_" cx="587.1" cy="195.8" r="0.8"/>
		<circle id="rightBrow2_1_" cx="601.1" cy="190.2" r="0.8"/>
	</g>
	<g>
		<path style="fill:#2C323A;stroke:#2C323A;stroke-width:2;stroke-miterlimit:10;" d="M646.4,217.9c7.1-2.2,10.9-4.3,20.5,0
			C663.2,212.9,652,212,646.4,217.9z"/>
		<circle id="leftBrow1_1_" cx="658" cy="191.2" r="0.8"/>
		<circle id="leftBrow4_1_" cx="634.9" cy="194.3" r="0.8"/>
		<circle id="leftBrow3_1_" cx="642.7" cy="191.2" r="0.8"/>
		<circle id="leftBrow0_1_" cx="663.9" cy="195.8" r="0.8"/>
		<circle id="leftBrow2_1_" cx="649.9" cy="190.2" r="0.8"/>
	</g>
	<g>
		<ellipse style="fill:#2C323A;" cx="594.1" cy="229.6" rx="3.9" ry="6.2"/>
		<circle id="rightEye0_1_" cx="596.2" cy="205.8" r="0.8"/>
		<circle id="rightEye1_1_" cx="601.3" cy="202.2" r="0.8"/>
		<circle id="rightEye5_1_" cx="601.3" cy="208.1" r="0.8"/>
		<circle id="rightEye2_1_" cx="607.5" cy="202.2" r="0.8"/>
		<circle id="rightEye3_1_" cx="612.6" cy="206.3" r="0.8"/>
		<circle id="rightEye4_1_" cx="607.5" cy="207.3" r="0.8"/>
		<ellipse style="fill:#DF7977;" cx="590.1" cy="245" rx="7.8" ry="6.2"/>
	</g>
	<g>
		<ellipse style="fill:#2C323A;" cx="654.1" cy="229.6" rx="3.9" ry="6.2"/>
		<circle id="leftEye0_1_" cx="654.8" cy="205.8" r="0.8"/>
		<circle id="leftEye1_1_" cx="649.7" cy="202.2" r="0.8"/>
		<circle id="leftEye5_1_" cx="649.7" cy="208.1" r="0.8"/>
		<circle id="leftEye2_1_" cx="643.5" cy="202.2" r="0.8"/>
		<circle id="leftEye3_1_" cx="638.4" cy="206.3" r="0.8"/>
		<circle id="leftEye4_1_" cx="643.5" cy="207.3" r="0.8"/>
		<ellipse style="fill:#DF7977;" cx="659.2" cy="245" rx="7.8" ry="6.2"/>
	</g>
	<g>
		<circle id="rightMiddleLip_2_" cx="611.8" cy="251.8" r="0.8"/>
		<circle id="upperLipBottomMid_1_" cx="625.5" cy="251.5" r="0.8"/>
		<circle id="rightUpperLipBottom1_1_" cx="621.6" cy="251" r="0.8"/>
		<circle id="leftMiddleLip_2_" cx="639.2" cy="251.8" r="0.8"/>
		<circle id="leftUpperLipBottom1_1_" cx="629.4" cy="251" r="0.8"/>
		<path style="fill:#2C323A;stroke:#2C323A;stroke-width:2;stroke-miterlimit:10;" d="M614.8,251.8c0,0,5.2-0.2,10.7-0.2
			s10.7,0.2,10.7,0.2s-2.9,3.7-10.7,3.7C617.6,255.5,614.8,251.8,614.8,251.8z"/>
		<circle id="lowerLipTopMid_2_" cx="625.5" cy="254.5" r="0.8"/>
		<circle id="rightLowerLipTop0_2_" cx="621.6" cy="253.8" r="0.8"/>
		<circle id="leftLowerLipTop0_2_" cx="629.4" cy="253.8" r="0.8"/>
	</g>
	<path style="fill:#FFFFFF;" d="M627.4,372.5c-0.3,0-0.5,0-0.8,0c-22.3,0.2-31.2-15.1-18.3-21.9v4.4c0.5,5.8,9.3,12.1,16.6,12.4
		c6.1,0.3,14.1-3.7,15.5-11.5l-0.5-6.5C653.6,359.9,642.7,372.7,627.4,372.5z"/>
	<path style="fill:#F3AF9D;" d="M313.1,551c31.1-46.4,60.1-97.9,100.3-140.2l57,41.7c-35.2,39.6-69.9,70.9-111,123.8
		C312.1,659.6,268.5,617.4,313.1,551z"/>
	<path style="fill:#DD6F6F;" d="M673.4,350.3c56.8-9.3,93.7,0,164,60.4l-57,41.7c-25-39.3-37-53.8-66.3-47.6L673.4,350.3z"/>
</g>
<g id="skeleton_1_">
	<circle id="rightShoulder" cx="550.6" cy="349.2" r="8.2"/>
	<circle id="rightElbow" cx="455.6" cy="444.2" r="8.2"/>
	<circle id="rightWrist" cx="344.6" cy="564.2" r="8.2"/>
	<circle id="rightHip" cx="575.6" cy="565" r="8.2"/>
	<circle id="rightKnee" cx="575.6" cy="725.2" r="8.2"/>
	<circle id="rightAnkle" cx="575.6" cy="933.2" r="8.2"/>
	<circle id="leftShoulder" cx="700.6" cy="349.2" r="8.2"/>
	<circle id="leftElbow" cx="795.6" cy="444.2" r="8.2"/>
	<circle id="leftWrist" cx="906.6" cy="564.2" r="8.2"/>
	<circle id="leftHip" cx="675.6" cy="564.2" r="8.2"/>
	<circle id="leftKnee" cx="675.6" cy="725.2" r="8.2"/>
	<circle id="leftAnkle" cx="675.6" cy="933.2" r="8.2"/>
	<polygon style="fill:none;stroke:#000000;stroke-miterlimit:10;" points="550.5,349.5 575.5,565.3 675.5,564.5 700.5,349.5 	"/>
	<polyline style="fill:none;stroke:#000000;stroke-miterlimit:10;" points="550.5,349.5 455.5,444.5 344.5,564.5 	"/>
	<polyline style="fill:none;stroke:#000000;stroke-miterlimit:10;" points="700.5,349.5 795.5,444.5 906.5,564.5 	"/>
	<polyline style="fill:none;stroke:#000000;stroke-miterlimit:10;" points="575.5,565.3 575.5,725.5 575.5,933.5 	"/>
	<polyline style="fill:none;stroke:#000000;stroke-miterlimit:10;" points="675.5,564.5 675.5,725.5 675.5,933.5 	"/>
	<circle id="rightEye0" cx="596.2" cy="205.8" r="0.8"/>
	<circle id="rightBrow1" cx="593" cy="191.2" r="0.8"/>
	<circle id="rightBrow4" cx="616.1" cy="194.3" r="0.8"/>
	<circle id="nose1" cx="625.5" cy="212.7" r="0.8"/>
	<circle id="rightBrow3" cx="608.3" cy="191.2" r="0.8"/>
	<circle id="rightEye1" cx="601.3" cy="202.2" r="0.8"/>
	<circle id="rightBrow0" cx="587.1" cy="195.8" r="0.8"/>
	<circle id="rightBrow2" cx="601.1" cy="190.2" r="0.8"/>
	<circle id="rightEye5" cx="601.3" cy="208.1" r="0.8"/>
	<circle id="rightEye2" cx="607.5" cy="202.2" r="0.8"/>
	<circle id="rightEye3" cx="612.6" cy="206.3" r="0.8"/>
	<circle id="nose0" cx="625.5" cy="204" r="0.8"/>
	<circle id="nose3" cx="625.5" cy="229.8" r="0.8"/>
	<circle id="rightNose0" cx="616.9" cy="235" r="0.8"/>
	<circle id="rightMouthCorner" cx="608.3" cy="251.5" r="0.8"/>
	<circle id="rightNose1" cx="621.4" cy="236.5" r="0.8"/>
	<circle id="rightUpperLipTop0" cx="615.1" cy="248.1" r="0.8"/>
	<circle id="nose2" cx="625.5" cy="220.9" r="0.8"/>
	<circle id="nose4" cx="625.5" cy="238" r="0.8"/>
	<circle id="upperLipTopMid" cx="625.5" cy="247.9" r="0.8"/>
	<circle id="rightUpperLipTop1" cx="621.4" cy="247.1" r="0.8"/>
	<circle id="rightMiddleLip" cx="611.8" cy="251.8" r="0.8"/>
	<circle id="lowerLipBottomMid" cx="625.5" cy="260.9" r="0.8"/>
	<circle id="upperLipBottomMid" cx="625.5" cy="251.5" r="0.8"/>
	<circle id="lowerLipTopMid" cx="625.5" cy="254.5" r="0.8"/>
	<circle id="rightUpperLipBottom1" cx="621.6" cy="251" r="0.8"/>
	<circle id="rightLowerLipTop0" cx="621.6" cy="253.8" r="0.8"/>
	<circle id="rightLowerLipBottom1" cx="621.4" cy="260.4" r="0.8"/>
	<circle id="rightLowerLipBottom0" cx="614.6" cy="257.7" r="0.8"/>
	<circle id="rightEye4" cx="607.5" cy="207.3" r="0.8"/>
	<circle id="jawMid" cx="625.5" cy="283.2" r="0.8"/>
	<circle id="rightJaw7" cx="614.6" cy="281.2" r="0.8"/>
	<circle id="rightJaw6" cx="604.4" cy="274.3" r="0.8"/>
	<circle id="rightJaw5" cx="595.4" cy="265.6" r="0.8"/>
	<circle id="rightJaw4" cx="587.9" cy="255.3" r="0.8"/>
	<circle id="rightJaw3" cx="583" cy="244.1" r="0.8"/>
	<circle id="rightJaw2" cx="580.4" cy="231.5" r="0.8"/>
	<circle id="rightJaw1" cx="578.4" cy="219.1" r="0.8"/>
	<circle id="rightJaw0" cx="577.7" cy="206.6" r="0.8"/>
	<circle id="leftEye0" cx="654.8" cy="205.8" r="0.8"/>
	<circle id="leftBrow1" cx="658" cy="191.2" r="0.8"/>
	<circle id="leftBrow4" cx="634.9" cy="194.3" r="0.8"/>
	<circle id="leftBrow3" cx="642.7" cy="191.2" r="0.8"/>
	<circle id="leftEye1" cx="649.7" cy="202.2" r="0.8"/>
	<circle id="leftBrow0" cx="663.9" cy="195.8" r="0.8"/>
	<circle id="leftBrow2" cx="649.9" cy="190.2" r="0.8"/>
	<circle id="leftEye5" cx="649.7" cy="208.1" r="0.8"/>
	<circle id="leftEye2" cx="643.5" cy="202.2" r="0.8"/>
	<circle id="leftEye3" cx="638.4" cy="206.3" r="0.8"/>
	<circle id="leftNose0" cx="634.1" cy="235" r="0.8"/>
	<circle id="leftMouthCorner" cx="642.7" cy="251.5" r="0.8"/>
	<circle id="leftNose1" cx="629.6" cy="236.5" r="0.8"/>
	<circle id="leftUpperLipTop0" cx="635.9" cy="248.1" r="0.8"/>
	<circle id="leftUpperLipTop1" cx="629.6" cy="247.1" r="0.8"/>
	<circle id="leftMiddleLip" cx="639.2" cy="251.8" r="0.8"/>
	<circle id="leftUpperLipBottom1" cx="629.4" cy="251" r="0.8"/>
	<circle id="leftLowerLipTop0" cx="629.4" cy="253.8" r="0.8"/>
	<circle id="leftLowerLipBottom1" cx="629.6" cy="260.4" r="0.8"/>
	<circle id="leftLowerLipBottom0" cx="636.4" cy="257.7" r="0.8"/>
	<circle id="leftEye4" cx="643.5" cy="207.3" r="0.8"/>
	<circle id="leftJaw7" cx="636.4" cy="281.2" r="0.8"/>
	<circle id="leftJaw6" cx="646.6" cy="274.3" r="0.8"/>
	<circle id="leftJaw5" cx="655.6" cy="265.6" r="0.8"/>
	<circle id="leftJaw4" cx="663.1" cy="255.3" r="0.8"/>
	<circle id="leftJaw3" cx="668" cy="244.1" r="0.8"/>
	<circle id="leftJaw2" cx="670.6" cy="231.5" r="0.8"/>
	<circle id="leftJaw1" cx="672.6" cy="219.1" r="0.8"/>
	<circle id="leftJaw0" cx="673.3" cy="206.6" r="0.8"/>
	<polyline style="fill:none;stroke:#000000;stroke-miterlimit:10;" points="577.7,206.6 578.4,219.1 580.4,231.5 583,244.1 
		587.9,255.3 595.4,265.6 604.4,274.3 614.6,281.2 625.5,283.2 636.4,281.2 646.6,274.3 655.6,265.6 663.1,255.3 668,244.1 
		670.6,231.5 672.6,219.1 673.3,206.6 	"/>
	<polyline style="fill:none;stroke:#000000;stroke-miterlimit:10;" points="587.1,195.8 593,191.2 601.1,190.2 608.3,191.2 
		616.1,194.3 	"/>
	<polygon style="fill:none;stroke:#000000;stroke-miterlimit:10;" points="596.2,205.8 601.3,202.2 607.5,202.2 612.6,206.3 
		607.5,207.3 601.3,208.1 	"/>
	<polyline style="fill:none;stroke:#000000;stroke-miterlimit:10;" points="616.9,235 621.4,236.5 625.5,238 625.5,229.8 
		625.5,220.9 625.5,212.7 625.5,204 	"/>
	<polyline style="fill:none;stroke:#000000;stroke-miterlimit:10;" points="663.6,195.8 657.8,191.2 649.7,190.2 642.5,191.2 
		634.7,194.3 	"/>
	<polygon style="fill:none;stroke:#000000;stroke-miterlimit:10;" points="654.6,205.8 649.4,202.2 643.2,202.2 638.2,206.3 
		643.2,207.3 649.4,208.1 	"/>
	<polyline style="fill:none;stroke:#000000;stroke-miterlimit:10;" points="634.1,235 629.4,236.5 625.5,238 	"/>
	<polygon style="fill:none;stroke:#000000;stroke-miterlimit:10;" points="608.3,251.5 615.1,248.1 621.4,247.1 625.5,247.9 
		629.6,247.1 635.9,248.1 642.7,251.5 636.4,257.7 629.4,260.4 625.5,260.9 621.4,260.4 614.6,257.7 	"/>
	<polyline style="fill:none;stroke:#000000;stroke-miterlimit:10;" points="608.3,251.5 611.8,251.8 621.6,251 625.5,251.5 
		629.4,251 639.2,251.8 642.7,251.5 	"/>
	<polyline style="fill:none;stroke:#000000;stroke-miterlimit:10;" points="608.3,251.5 611.8,251.8 621.6,253.8 625.5,254.6 
		629.4,253.8 639.2,251.8 642.7,251.5 	"/>
</g>
</svg>
